External Loads File
version=1
nRows=78
nColumns=13
Range=5.000000e-03-10 seconds
endheader
time 	forceRightX 	forceRightY 	forceRightZ 	pointRightX 	pointRightY 	pointRightZ 	forceLeftX 	forceLeftY 	forceLeftZ 	pointLeftX 	pointLeftY 	pointLeftZ 		
0.005000 -5.709981 106.209549 -0.000000 0.327474 0.481202 -0.110232 -13.860414 146.382675 -0.000000 0.163375 0.165007 -0.352706
0.010000 -6.588700 106.103550 -0.000000 0.327437 0.481235 -0.110211 -13.833980 146.051908 -0.000000 0.163394 0.164996 -0.352725
0.015000 -7.400095 106.026999 -0.000000 0.327404 0.481239 -0.110205 -13.735728 145.839410 -0.000000 0.163410 0.164997 -0.352716
0.020000 -7.862190 106.010732 -0.000000 0.327373 0.481262 -0.110218 -13.216579 145.794165 -0.000000 0.163430 0.166839 -0.352720
0.025000 -8.750685 105.998961 -0.000000 0.327351 0.481282 -0.110236 -13.380629 145.817359 -0.000000 0.163506 0.164856 -0.352759
0.030000 -9.188128 106.053241 -0.000000 0.327324 0.481297 -0.110223 -13.051914 146.008583 -0.000000 0.163512 0.164940 -0.352719
0.035000 -9.484459 106.146094 -0.000000 0.327292 0.481307 -0.110230 -12.686378 146.300706 -0.000000 0.163525 0.164943 -0.352718
0.040000 -9.626437 106.277272 -0.000000 0.327259 0.481314 -0.110247 -12.287425 146.654091 -0.000000 0.163528 0.164926 -0.352719
0.045000 -9.625751 106.435451 -0.000000 0.327241 0.481317 -0.110255 -11.879967 147.014311 -0.000000 0.163532 0.164926 -0.352727
0.050000 -9.520854 106.595212 -0.000000 0.327216 0.481315 -0.110245 -11.511143 147.332334 -0.000000 0.163530 0.164903 -0.352735
0.055000 -9.331890 106.732441 -0.000000 0.327193 0.481311 -0.110239 -11.177925 147.601220 -0.000000 0.163522 0.164910 -0.352728
0.060000 -9.095128 106.832759 -0.000000 0.327166 0.481302 -0.110244 -10.881443 147.843058 -0.000000 0.163516 0.164910 -0.352735
0.065000 -8.825560 106.895964 -0.000000 0.327143 0.481291 -0.110235 -10.596101 148.076992 -0.000000 0.163497 0.164904 -0.352731
0.070000 -8.545686 106.920816 -0.000000 0.327133 0.481276 -0.110231 -10.311087 148.298177 -0.000000 0.163477 0.164902 -0.352730
0.075000 -8.282151 106.895221 -0.000000 0.327119 0.481257 -0.110227 -10.023022 148.479751 -0.000000 0.163456 0.164924 -0.352728
0.080000 -8.045083 106.813609 -0.000000 0.327119 0.481258 -0.110217 -9.722003 148.598433 -0.000000 0.163428 0.164937 -0.352724
0.085000 -7.811461 106.701006 -0.000000 0.327123 0.481229 -0.110224 -9.380166 148.664382 -0.000000 0.163390 0.164938 -0.352725
0.090000 -7.549983 106.604206 -0.000000 0.327127 0.481206 -0.110210 -8.984356 148.708944 -0.000000 0.163338 0.164960 -0.352721
0.095000 -7.235295 106.565724 -0.000000 0.327160 0.481197 -0.110206 -8.539670 148.762721 -0.000000 0.163279 0.164983 -0.352721
0.100000 -6.867105 106.612890 -0.000000 0.327199 0.481145 -0.110202 -8.069768 148.851981 -0.000000 0.163217 0.165016 -0.352719
0.105000 -6.485156 106.764368 -0.000000 0.327238 0.481149 -0.110195 -7.624474 148.999907 -0.000000 0.163130 0.165049 -0.352723
0.110000 -6.124980 107.038489 -0.000000 0.327280 0.481104 -0.110198 -7.227015 149.240251 -0.000000 0.163047 0.165080 -0.352716
0.115000 -5.825834 107.447239 -0.000000 0.327341 0.481063 -0.110192 -6.902195 149.616977 -0.000000 0.162951 0.165121 -0.352712
0.120000 -5.635837 107.989111 -0.000000 0.327419 0.481108 -0.110198 -6.689236 150.169130 -0.000000 0.162842 0.165150 -0.352718
0.125000 -5.543598 108.652744 -0.000000 0.327496 0.481030 -0.110198 -6.546941 150.929501 -0.000000 0.162718 0.165203 -0.352730
0.130000 -5.570990 109.415517 -0.000000 0.327601 0.480983 -0.110197 -6.488445 151.914505 -0.000000 0.162588 0.165261 -0.352738
0.135000 -5.712616 110.248733 -0.000000 0.327708 0.480917 -0.110194 -6.495708 153.121770 -0.000000 0.162468 0.165322 -0.352743
0.140000 -5.948594 111.114057 -0.000000 0.327810 0.480812 -0.110180 -6.529924 154.534737 -0.000000 0.162350 0.165379 -0.352733
0.145000 -6.258591 111.959884 -0.000000 0.327931 0.480740 -0.110173 -6.554350 156.117305 -0.000000 0.162229 0.165448 -0.352733
0.150000 -6.632513 112.735795 -0.000000 0.328048 0.480655 -0.110171 -6.561085 157.798723 -0.000000 0.162130 0.165507 -0.352734
0.155000 -7.055208 113.421096 -0.000000 0.328142 0.480594 -0.110171 -6.558626 159.488192 -0.000000 0.162042 0.165550 -0.352735
0.160000 -7.484509 114.033313 -0.000000 0.328244 0.480539 -0.110166 -6.540903 161.105899 -0.000000 0.161979 0.165578 -0.352731
0.165000 -7.884544 114.607871 -0.000000 0.328318 0.480484 -0.110165 -6.517442 162.600740 -0.000000 0.161934 0.165611 -0.352740
0.170000 -8.227482 115.171699 -0.000000 0.328388 0.480463 -0.110168 -6.500193 163.942773 -0.000000 0.161919 0.165619 -0.352753
0.175000 -8.492302 115.722694 -0.000000 0.328436 0.480441 -0.110182 -6.501127 165.095113 -0.000000 0.161936 0.165629 -0.352757
0.180000 -8.684504 116.231376 -0.000000 0.328462 0.480428 -0.110181 -6.556922 166.010058 -0.000000 0.161983 0.165621 -0.352756
0.185000 -8.817736 116.660946 -0.000000 0.328469 0.480442 -0.110192 -6.693578 166.649050 -0.000000 0.162058 0.165605 -0.352774
0.190000 -8.913713 116.977380 -0.000000 0.328461 0.480470 -0.110187 -6.917813 166.999936 -0.000000 0.162166 0.165573 -0.352764
0.195000 -8.998734 117.160375 -0.000000 0.328421 0.480506 -0.110197 -7.215191 167.086106 -0.000000 0.162305 0.165514 -0.352766
0.200000 -9.072962 117.223794 -0.000000 0.328368 0.480578 -0.110210 -7.534173 166.951587 -0.000000 0.162471 0.165466 -0.352763
0.205000 -9.122486 117.214208 -0.000000 0.328316 0.480634 -0.110216 -7.834214 166.627532 -0.000000 0.162672 0.165396 -0.352749
0.210000 -9.144706 117.178067 -0.000000 0.328225 0.480696 -0.110192 -8.125056 166.114995 -0.000000 0.162915 0.165316 -0.352748
0.215000 -9.113963 117.128643 -0.000000 0.328131 0.480814 -0.110177 -8.391500 165.406819 -0.000000 0.163164 0.165225 -0.352744
0.220000 -9.034944 117.033943 -0.000000 0.328035 0.480934 -0.110182 -8.634692 164.520056 -0.000000 0.163436 0.165135 -0.352750
0.225000 -8.937130 116.843438 -0.000000 0.327924 0.481044 -0.110205 -8.860332 163.501064 -0.000000 0.163723 0.165018 -0.352747
0.230000 -8.837358 116.525219 -0.000000 0.327806 0.481144 -0.110233 -9.059447 162.393857 -0.000000 0.164020 0.164908 -0.352756
0.235000 -8.757539 116.080817 -0.000000 0.327663 0.481261 -0.110234 -9.254563 161.227157 -0.000000 0.164317 0.164787 -0.352777
0.240000 -8.685400 115.545249 -0.000000 0.327516 0.481355 -0.110208 -9.435192 160.038681 -0.000000 0.164628 0.164691 -0.352788
0.245000 -8.633087 114.968850 -0.000000 0.327364 0.481477 -0.110233 -9.626373 158.867961 -0.000000 0.164939 0.164546 -0.352788
0.250000 -8.590347 114.401351 -0.000000 0.327209 0.481578 -0.110241 -9.819122 157.741355 -0.000000 0.165277 0.164418 -0.352788
0.255000 -8.552596 113.874691 -0.000000 0.327056 0.481670 -0.110258 -10.007175 156.672932 -0.000000 0.165604 0.164285 -0.352794
0.260000 -8.532714 113.400270 -0.000000 0.326907 0.481766 -0.110261 -10.202412 155.679320 -0.000000 0.165927 0.164141 -0.352807
0.265000 -8.535743 112.978714 -0.000000 0.326747 0.481842 -0.110257 -10.404258 154.785500 -0.000000 0.166252 0.164032 -0.352782
0.270000 -8.559228 112.606128 -0.000000 0.326592 0.481897 -0.110253 -10.612960 153.997927 -0.000000 0.166544 0.163894 -0.352790
0.275000 -8.608821 112.268886 -0.000000 0.326436 0.482026 -0.110251 -10.861142 153.277110 -0.000000 0.166828 0.163776 -0.352811
0.280000 -8.649495 111.947114 -0.000000 0.326298 0.482142 -0.110267 -11.131538 152.577528 -0.000000 0.167112 0.163682 -0.352820
0.285000 -8.674935 111.628555 -0.000000 0.326154 0.482250 -0.110257 -11.426218 151.890087 -0.000000 0.167407 0.163594 -0.352807
0.290000 -8.666518 111.325179 -0.000000 0.326023 0.482385 -0.110263 -11.706034 151.240141 -0.000000 0.167677 0.163482 -0.352810
0.295000 -8.611763 111.057904 -0.000000 0.325886 0.482474 -0.110267 -11.929447 150.656300 -0.000000 0.167929 0.163394 -0.352797
0.300000 -8.524548 110.839432 -0.000000 0.325753 0.482557 -0.110235 -12.101140 150.153352 -0.000000 0.168168 0.163263 -0.352798
0.305000 -8.385921 110.682017 -0.000000 0.325621 0.482636 -0.110245 -12.198745 149.747665 -0.000000 0.168392 0.163208 -0.352783
0.310000 -8.204997 110.594136 -0.000000 0.325495 0.482711 -0.110224 -12.238997 149.451251 -0.000000 0.168572 0.163102 -0.352778
0.315000 -7.994313 110.570341 -0.000000 0.325382 0.482773 -0.110222 -12.226965 149.254583 -0.000000 0.168752 0.163047 -0.352775
0.320000 -7.789398 110.588751 -0.000000 0.325273 0.482831 -0.110248 -12.183211 149.127372 -0.000000 0.168914 0.162988 -0.352766
0.325000 -7.601324 110.633232 -0.000000 0.325185 0.482874 -0.110232 -12.101386 149.044394 -0.000000 0.169044 0.162939 -0.352780
0.330000 -7.442585 110.706903 -0.000000 0.325096 0.482890 -0.110229 -11.995304 149.007140 -0.000000 0.169142 0.162882 -0.352787
0.335000 -7.307402 110.832208 -0.000000 0.325042 0.482936 -0.110234 -11.858254 149.059373 -0.000000 0.169231 0.162848 -0.352790
0.340000 -7.189213 111.035752 -0.000000 0.324988 0.482971 -0.110226 -11.675961 149.256646 -0.000000 0.169281 0.162814 -0.352800
0.345000 -7.084311 111.329121 -0.000000 0.324944 0.482980 -0.110211 -11.436190 149.625753 -0.000000 0.169320 0.162801 -0.352801
0.350000 -6.994434 111.698161 -0.000000 0.324914 0.482987 -0.110216 -11.139529 150.150642 -0.000000 0.169332 0.162781 -0.352807
0.355000 -6.924142 112.110229 -0.000000 0.324887 0.482985 -0.110209 -10.799939 150.788078 -0.000000 0.169330 0.162780 -0.352813
0.360000 -6.869419 112.527001 -0.000000 0.324882 0.482982 -0.110212 -10.424589 151.503134 -0.000000 0.169310 0.162786 -0.352828
0.365000 -6.828187 112.904628 -0.000000 0.324896 0.482961 -0.110209 -10.014457 152.283239 -0.000000 0.169264 0.162799 -0.352828
0.370000 -6.824170 113.193376 -0.000000 0.324918 0.482957 -0.110205 -9.593668 153.117533 -0.000000 0.169203 0.162808 -0.352820
0.375000 -6.857250 113.359567 -0.000000 0.324955 0.482916 -0.110196 -9.159368 153.986330 -0.000000 0.169122 0.162828 -0.352820
0.380000 -6.941003 113.401649 -0.000000 0.324993 0.482899 -0.110200 -8.750138 154.855132 -0.000000 0.169022 0.162869 -0.352817
0.385000 -7.063485 113.347116 -0.000000 0.325035 0.482876 -0.110200 -8.396013 155.677955 -0.000000 0.168918 0.162916 -0.352813
0.390000 -7.212191 113.232162 -0.000000 0.325077 0.482858 -0.110190 -8.137491 156.405303 -0.000000 0.168803 0.162937 -0.352819
